<mxfile host="Electron" modified="2024-05-08T07:50:52.935Z" agent="Mozilla/5.0 (Windows NT 10.0; Win64; x64) AppleWebKit/537.36 (KHTML, like Gecko) draw.io/24.2.5 Chrome/120.0.6099.109 Electron/28.1.0 Safari/537.36" etag="Rp0Zy5So_DQ065TKMBNr" version="24.2.5" type="device">
  <diagram name="Page-1" id="Exw7-E7XCkNXISRMkHzn">
    <mxGraphModel dx="1102" dy="702" grid="1" gridSize="10" guides="1" tooltips="1" connect="1" arrows="1" fold="1" page="1" pageScale="1" pageWidth="850" pageHeight="1100" math="0" shadow="0">
      <root>
        <mxCell id="0" />
        <mxCell id="1" parent="0" />
        <mxCell id="ck5JS-5OrzXpDrZkjGdZ-8" style="edgeStyle=orthogonalEdgeStyle;rounded=0;orthogonalLoop=1;jettySize=auto;html=1;exitX=1;exitY=0.5;exitDx=0;exitDy=0;exitPerimeter=0;" edge="1" parent="1" source="ck5JS-5OrzXpDrZkjGdZ-2">
          <mxGeometry relative="1" as="geometry">
            <mxPoint x="200" y="362" as="targetPoint" />
          </mxGeometry>
        </mxCell>
        <mxCell id="ck5JS-5OrzXpDrZkjGdZ-2" value="" style="outlineConnect=0;dashed=0;verticalLabelPosition=bottom;verticalAlign=top;align=center;html=1;shape=mxgraph.aws3.android;fillColor=#115193;gradientColor=none;" vertex="1" parent="1">
          <mxGeometry x="80" y="320" width="73.5" height="84" as="geometry" />
        </mxCell>
        <mxCell id="ck5JS-5OrzXpDrZkjGdZ-3" value="APP" style="text;html=1;align=center;verticalAlign=middle;whiteSpace=wrap;rounded=0;fontStyle=1" vertex="1" parent="1">
          <mxGeometry x="88.36999999999999" y="404" width="56.75" height="30" as="geometry" />
        </mxCell>
        <mxCell id="ck5JS-5OrzXpDrZkjGdZ-13" style="edgeStyle=orthogonalEdgeStyle;rounded=0;orthogonalLoop=1;jettySize=auto;html=1;" edge="1" parent="1" source="ck5JS-5OrzXpDrZkjGdZ-5">
          <mxGeometry relative="1" as="geometry">
            <mxPoint x="430" y="362" as="targetPoint" />
          </mxGeometry>
        </mxCell>
        <mxCell id="ck5JS-5OrzXpDrZkjGdZ-5" value="" style="sketch=0;outlineConnect=0;fontColor=#232F3E;gradientColor=none;fillColor=#8C4FFF;strokeColor=none;dashed=0;verticalLabelPosition=bottom;verticalAlign=top;align=center;html=1;fontSize=12;fontStyle=0;aspect=fixed;pointerEvents=1;shape=mxgraph.aws4.msk_amazon_msk_connect;" vertex="1" parent="1">
          <mxGeometry x="310" y="323.5" width="78" height="77" as="geometry" />
        </mxCell>
        <mxCell id="ck5JS-5OrzXpDrZkjGdZ-6" value="Connector" style="text;html=1;align=center;verticalAlign=middle;whiteSpace=wrap;rounded=0;fontStyle=1" vertex="1" parent="1">
          <mxGeometry x="320.63" y="404" width="56.75" height="30" as="geometry" />
        </mxCell>
        <mxCell id="ck5JS-5OrzXpDrZkjGdZ-10" style="edgeStyle=orthogonalEdgeStyle;rounded=0;orthogonalLoop=1;jettySize=auto;html=1;" edge="1" parent="1" source="ck5JS-5OrzXpDrZkjGdZ-7">
          <mxGeometry relative="1" as="geometry">
            <mxPoint x="300" y="362" as="targetPoint" />
          </mxGeometry>
        </mxCell>
        <mxCell id="ck5JS-5OrzXpDrZkjGdZ-7" value="" style="sketch=0;pointerEvents=1;shadow=0;dashed=0;html=1;strokeColor=none;fillColor=#434445;aspect=fixed;labelPosition=center;verticalLabelPosition=bottom;verticalAlign=top;align=center;outlineConnect=0;shape=mxgraph.vvd.cpu;" vertex="1" parent="1">
          <mxGeometry x="210" y="337" width="50" height="50" as="geometry" />
        </mxCell>
        <mxCell id="ck5JS-5OrzXpDrZkjGdZ-11" value="Semantic Kernel" style="text;html=1;align=center;verticalAlign=middle;whiteSpace=wrap;rounded=0;fontStyle=1" vertex="1" parent="1">
          <mxGeometry x="180" y="404" width="120" height="30" as="geometry" />
        </mxCell>
        <mxCell id="ck5JS-5OrzXpDrZkjGdZ-12" value="" style="sketch=0;outlineConnect=0;fontColor=#232F3E;gradientColor=none;fillColor=#01A88D;strokeColor=none;dashed=0;verticalLabelPosition=bottom;verticalAlign=top;align=center;html=1;fontSize=12;fontStyle=0;aspect=fixed;pointerEvents=1;shape=mxgraph.aws4.sagemaker_model;" vertex="1" parent="1">
          <mxGeometry x="440" y="323" width="78" height="78" as="geometry" />
        </mxCell>
        <mxCell id="ck5JS-5OrzXpDrZkjGdZ-14" value="Models" style="text;html=1;align=center;verticalAlign=middle;whiteSpace=wrap;rounded=0;fontStyle=1" vertex="1" parent="1">
          <mxGeometry x="454.31" y="404" width="49.38" height="30" as="geometry" />
        </mxCell>
      </root>
    </mxGraphModel>
  </diagram>
</mxfile>
